<svg width="20" height="16" viewBox="0 0 20 16" fill="none" xmlns="http://www.w3.org/2000/svg">
<path d="M12.4999 9.66667V8H19.1666V9.66667H12.4999ZM9.16659 15.5L6.52075 13.125C5.52075 12.2222 4.66311 11.4167 3.94784 10.7083C3.23256 10 2.64228 9.33333 2.177 8.70833C1.71172 8.08333 1.37145 7.47917 1.15617 6.89583C0.940891 6.3125 0.833252 5.70139 0.833252 5.0625C0.833252 3.75694 1.27075 2.67014 2.14575 1.80208C3.02075 0.934028 4.11103 0.5 5.41659 0.5C6.13881 0.5 6.82631 0.649306 7.47909 0.947917C8.13186 1.24653 8.69436 1.67361 9.16659 2.22917C9.63881 1.67361 10.2013 1.24653 10.8541 0.947917C11.5069 0.649306 12.1944 0.5 12.9166 0.5C14.0971 0.5 15.0867 0.857639 15.8853 1.57292C16.6839 2.28819 17.1805 3.125 17.3749 4.08333C17.1249 3.98611 16.8749 3.91319 16.6249 3.86458C16.3749 3.81597 16.1319 3.79167 15.8958 3.79167C14.493 3.79167 13.2985 4.28125 12.3124 5.26042C11.3263 6.23958 10.8333 7.43056 10.8333 8.83333C10.8333 9.55556 10.9791 10.2396 11.2708 10.8854C11.5624 11.5312 11.9721 12.0833 12.4999 12.5417C12.236 12.7778 11.8923 13.0799 11.4687 13.4479C11.0451 13.816 10.6805 14.1389 10.3749 14.4167L9.16659 15.5Z" fill="#D99E16"/>
</svg>
