<svg width="19" height="16" viewBox="0 0 19 16" fill="none" xmlns="http://www.w3.org/2000/svg">
<path d="M18.4792 6.77083C18.632 6.9375 18.7084 7.13542 18.7084 7.36458C18.7084 7.59375 18.632 7.79167 18.4792 7.95833L15.5209 10.8958C15.3681 11.0625 15.1737 11.1458 14.9375 11.1458C14.7014 11.1458 14.507 11.0625 14.3542 10.8958L13.1667 9.72917C13 9.5625 12.9167 9.36458 12.9167 9.13542C12.9167 8.90625 13 8.70833 13.1667 8.54167C13.3334 8.38889 13.5313 8.3125 13.7605 8.3125C13.9896 8.3125 14.1875 8.38889 14.3542 8.54167L14.9375 9.125L17.2917 6.77083C17.4584 6.61806 17.6563 6.54167 17.8855 6.54167C18.1146 6.54167 18.3125 6.61806 18.4792 6.77083ZM8.60421 15.0208L6.52087 13.125C5.52087 12.2222 4.66323 11.4167 3.94796 10.7083C3.23268 10 2.6424 9.33333 2.17712 8.70833C1.71185 8.08333 1.37157 7.47917 1.15629 6.89583C0.941013 6.3125 0.833374 5.70139 0.833374 5.0625C0.833374 3.75694 1.27087 2.67014 2.14587 1.80208C3.02087 0.934028 4.11115 0.5 5.41671 0.5C6.13893 0.5 6.82643 0.649306 7.47921 0.947917C8.13198 1.24653 8.69449 1.67361 9.16671 2.22917C9.63893 1.67361 10.2014 1.24653 10.8542 0.947917C11.507 0.649306 12.1945 0.5 12.9167 0.5C14.0973 0.5 15.0868 0.857639 15.8855 1.57292C16.6841 2.28819 17.1806 3.125 17.375 4.08333C17.0973 3.97222 16.8056 3.90278 16.5 3.875C16.1945 3.84722 15.882 3.83333 15.5625 3.83333C14.382 3.83333 13.2987 4.30903 12.3125 5.26042C11.3264 6.21181 10.8334 7.40278 10.8334 8.83333C10.8334 9.5 10.9792 10.1771 11.2709 10.8646C11.5625 11.5521 11.9723 12.1111 12.5 12.5417C12.2362 12.7778 11.8924 13.0799 11.4688 13.4479C11.0452 13.816 10.6806 14.1389 10.375 14.4167L9.70837 15.0208C9.5556 15.1597 9.37157 15.2292 9.15629 15.2292C8.94101 15.2292 8.75698 15.1597 8.60421 15.0208Z" fill="#5B8350"/>
</svg>
