<svg width="18" height="15" viewBox="0 0 18 15" fill="none" xmlns="http://www.w3.org/2000/svg">
<path d="M7.93746 14.5417C6.42357 13.2083 5.1944 12.0868 4.24996 11.1771C3.30552 10.2674 2.56593 9.46875 2.03121 8.78125C1.49649 8.09375 1.13538 7.46528 0.947876 6.89583C0.760376 6.32639 0.666626 5.72222 0.666626 5.08333C0.666626 3.80556 1.11107 2.72222 1.99996 1.83333C2.88885 0.944444 3.97218 0.5 5.24996 0.5C5.87496 0.5 6.47913 0.614583 7.06246 0.84375C7.64579 1.07292 8.16663 1.40278 8.62496 1.83333L7.64579 5.27083C7.57635 5.54861 7.62149 5.79514 7.78121 6.01042C7.94093 6.22569 8.15968 6.33333 8.43746 6.33333H9.83329L9.29163 11.625C9.27774 11.7361 9.32288 11.7986 9.42704 11.8125C9.53121 11.8264 9.59718 11.7847 9.62496 11.6875L11.1666 6.58333C11.25 6.30556 11.2083 6.05556 11.0416 5.83333C10.875 5.61111 10.6527 5.5 10.375 5.5H8.99996L10.4791 1.08333C10.8263 0.888889 11.1909 0.743056 11.5729 0.645833C11.9548 0.548611 12.3472 0.5 12.75 0.5C14.0277 0.5 15.1111 0.944444 16 1.83333C16.8888 2.72222 17.3333 3.80556 17.3333 5.08333C17.3333 5.69444 17.2222 6.29861 17 6.89583C16.7777 7.49306 16.3923 8.15278 15.8437 8.875C15.2951 9.59722 14.559 10.4132 13.6354 11.3229C12.7118 12.2326 11.5416 13.3056 10.125 14.5417C9.97218 14.6806 9.79857 14.7847 9.60413 14.8542C9.40968 14.9236 9.21524 14.9583 9.02079 14.9583C8.82635 14.9583 8.63538 14.9236 8.44788 14.8542C8.26038 14.7847 8.09024 14.6806 7.93746 14.5417Z" fill="#E85D5D"/>
</svg>
